<svg width="14" height="16" viewBox="0 0 14 16" fill="none" xmlns="http://www.w3.org/2000/svg">
<rect y="4.57143" width="14" height="11.4286" fill="#333333"/>
<path fill-rule="evenodd" clip-rule="evenodd" d="M2.3335 3.42857C2.3335 5.32212 3.9005 6.85714 5.8335 6.85714C7.76649 6.85714 9.3335 5.32212 9.3335 3.42857C9.3335 1.53502 7.76649 0 5.8335 0C3.9005 0 2.3335 1.53502 2.3335 3.42857ZM8.23975 3.42857C8.23975 4.73039 7.16243 5.78571 5.8335 5.78571C4.50456 5.78571 3.42725 4.73039 3.42725 3.42857C3.42725 2.12676 4.50456 1.07143 5.8335 1.07143C7.16243 1.07143 8.23975 2.12676 8.23975 3.42857Z" fill="#333333"/>
<path fill-rule="evenodd" clip-rule="evenodd" d="M4.6665 3.42857C4.6665 5.32212 6.23351 6.85714 8.1665 6.85714C10.0995 6.85714 11.6665 5.32212 11.6665 3.42857C11.6665 1.53502 10.0995 0 8.1665 0C6.23351 0 4.6665 1.53502 4.6665 3.42857ZM10.5728 3.42857C10.5728 4.73039 9.49544 5.78571 8.1665 5.78571C6.83757 5.78571 5.76025 4.73039 5.76025 3.42857C5.76025 2.12676 6.83757 1.07143 8.1665 1.07143C9.49544 1.07143 10.5728 2.12676 10.5728 3.42857Z" fill="#333333"/>
</svg>
